<svg width="1570" height="1039" viewBox="0 0 1570 1039" fill="none" xmlns="http://www.w3.org/2000/svg">
<g clip-path="url(#clip0_1_3)">
<rect width="1570" height="1039" rx="24" fill="#925FE2"/>
<path fill-rule="evenodd" clip-rule="evenodd" d="M1052.32 -82.3287C1117.47 -94.2564 1175.19 -40.0773 1221.45 8.20351C1267.09 55.8225 1310.57 114.443 1304.42 180.738C1298.55 243.846 1243.77 288.079 1192.18 323.412C1151.07 351.57 1101.72 349.713 1052.32 353.386C996.329 357.551 936.339 378.88 890.471 345.851C839.618 309.233 802.842 243.457 812.564 180.738C821.741 121.533 894.658 104.611 934.668 60.7128C977.857 13.3253 989.894 -70.898 1052.32 -82.3287Z" fill="#9C6FE4"/>
<path fill-rule="evenodd" clip-rule="evenodd" d="M1037.01 542.596C1153.47 490.001 1255.35 395.317 1382 412.311C1530.63 432.254 1685.18 503.659 1751.01 638.4C1816.57 772.608 1759.14 928.749 1701.66 1066.61C1649.22 1192.36 1568.91 1304.87 1447.42 1366.52C1325.02 1428.63 1187.34 1421.37 1052.44 1396.06C887.591 1365.12 686.62 1355.84 606.156 1208.67C524.895 1060.05 594.338 868.696 686.336 726.471C760.857 611.265 911.959 599.067 1037.01 542.596Z" fill="#9C6FE4"/>
<path fill-rule="evenodd" clip-rule="evenodd" d="M339.374 221.736C395.752 223.383 457.63 208.888 500.368 245.694C544.935 284.076 559.47 348.114 554.133 406.688C549.212 460.692 513.683 504.403 473.479 540.793C435.705 574.983 390.206 597.623 339.374 601.072C284.424 604.8 225.459 598.477 185.748 560.313C145.488 521.621 140.046 462.45 137.113 406.688C133.953 346.622 124.3 276.594 168.689 236.003C212.49 195.951 280.047 220.002 339.374 221.736Z" fill="#9C6FE4"/>
<path fill-rule="evenodd" clip-rule="evenodd" d="M1261.81 186.501C1290.86 187.349 1322.74 179.881 1344.76 198.844C1367.72 218.619 1375.21 251.613 1372.46 281.791C1369.92 309.614 1351.62 332.135 1330.9 350.883C1311.44 368.498 1288 380.163 1261.81 381.94C1233.5 383.86 1203.12 380.603 1182.66 360.941C1161.92 341.006 1159.11 310.52 1157.6 281.791C1155.98 250.844 1151 214.764 1173.87 193.852C1196.44 173.216 1231.25 185.608 1261.81 186.501Z" fill="#9C6FE4" fill-opacity="0.6"/>
<path fill-rule="evenodd" clip-rule="evenodd" d="M750.307 -41.9416C777.222 -64.5969 812.623 -69.6072 847.797 -70.2766C879.998 -70.8894 913.821 -67.4652 937.377 -45.5015C960.085 -24.3285 959.217 9.1534 965.577 39.5425C973.477 77.2891 997.691 116.757 978.316 150.101C957.574 185.8 912.355 200.04 871.12 202.108C831.251 204.109 795.28 185.102 763.554 160.875C729.751 135.062 691.992 105.646 689.22 63.2049C686.474 21.1562 718.069 -14.8056 750.307 -41.9416Z" fill="#9C6FE4" fill-opacity="0.6"/>
<path fill-rule="evenodd" clip-rule="evenodd" d="M779.307 699.058C806.222 676.403 841.623 671.393 876.797 670.723C908.998 670.111 942.821 673.535 966.377 695.499C989.085 716.672 988.217 750.153 994.577 780.543C1002.48 818.289 1026.69 857.757 1007.32 891.101C986.574 926.8 941.355 941.04 900.12 943.109C860.251 945.109 824.28 926.102 792.554 901.875C758.751 876.062 720.992 846.647 718.22 804.205C715.474 762.156 747.069 726.194 779.307 699.058Z" fill="#9C6FE4" fill-opacity="0.6"/>
</g>
<defs>
<clipPath id="clip0_1_3">
<rect width="1570" height="1039" rx="24" fill="white"/>
</clipPath>
</defs>
</svg>
